<svg width="1440" height="949" viewBox="0 0 1440 949" fill="none" xmlns="http://www.w3.org/2000/svg">
<path d="M723.822 160.93C719.607 175.881 728.505 192.327 746.77 201.896C756.136 206.68 767.376 209.969 779.084 211.165C790.793 212.362 802.969 211.763 814.209 209.072C825.449 206.381 835.752 201.298 841.84 194.719C849.802 186.646 850.738 176.479 848.397 166.911C842.777 145.381 815.146 131.626 787.046 129.533C758.946 127.141 730.847 136.71 723.822 160.93Z" stroke="#979697" stroke-opacity="0.8" stroke-width="0.592" stroke-miterlimit="10"/>
<path d="M792.196 118.768C772.995 116.974 753.325 120.263 738.807 127.44C722.416 135.513 710.707 145.979 695.253 156.744C684.481 164.219 673.241 171.396 663.875 180.366C644.205 199.803 681.671 206.381 700.872 221.332C707.897 227.014 714.454 234.19 721.011 241.366C731.782 252.729 744.427 263.494 760.818 269.175C777.678 275.156 803.904 279.94 828.726 276.95C839.497 275.754 849.8 273.063 858.699 268.876C867.597 264.989 885.862 261.401 892.418 256.018C898.506 251.234 901.785 243.759 900.848 238.077C895.228 210.866 895.228 203.092 894.76 195.018C892.887 170.499 867.129 161.229 861.977 151.362C856.825 141.793 848.395 143.288 840.434 136.112C829.662 126.842 810.929 120.563 792.196 118.768Z" stroke="#979697" stroke-opacity="0.8" stroke-width="0.592" stroke-miterlimit="10"/>
<path d="M795.941 107.406C767.842 104.715 738.337 110.396 718.199 122.357C695.251 136.112 680.733 152.558 655.912 167.509C638.115 178.273 618.914 187.244 602.991 199.205C565.525 227.014 638.115 229.107 668.088 250.337C678.86 257.813 686.353 268.876 694.783 280.538C707.428 298.18 721.477 316.72 742.552 326.886C764.564 337.651 804.84 347.519 843.242 344.528C859.166 343.332 875.089 339.744 889.138 333.465C901.315 328.082 933.629 324.195 943.464 317.019C953.299 309.842 957.982 297.283 955.172 289.21C938.313 241.367 942.059 232.396 941.591 223.126C940.654 183.357 897.568 171.994 893.822 159.136C889.138 142.391 875.557 148.371 864.317 136.112C850.736 120.862 824.041 110.097 795.941 107.406Z" stroke="#979697" stroke-opacity="0.8" stroke-width="0.592" stroke-miterlimit="10"/>
<path d="M799.689 95.744C762.691 92.1557 723.351 100.528 698.062 117.273C668.557 136.411 650.761 159.136 617.509 177.974C593.156 191.729 565.525 202.494 542.577 217.445C486.846 253.626 595.03 251.533 635.306 278.744C649.356 288.313 659.191 302.965 668.557 318.813C683.544 343.033 698.062 369.048 723.82 383.999C750.983 399.548 804.84 414.798 857.293 411.808C878.836 410.612 900.379 406.126 919.112 397.754C934.567 390.876 980.931 386.391 993.576 377.72C1007.16 368.151 1012.78 350.808 1008.09 340.342C979.526 271.867 987.019 261.7 987.488 250.935C988.424 195.916 927.542 182.759 925.2 166.911C921.922 142.989 902.252 153.754 888.202 135.813C871.343 114.582 836.686 99.3322 799.689 95.744Z" stroke="#979697" stroke-opacity="0.8" stroke-width="0.592" stroke-miterlimit="10"/>
<path d="M803.433 84.3811C757.537 79.8958 708.363 90.6605 677.453 112.19C641.86 137.009 620.786 165.714 578.168 188.739C547.258 205.783 511.197 218.043 481.224 235.984C407.697 280.538 551.005 274.259 601.584 307.45C618.912 318.813 630.621 337.352 641.392 357.386C658.252 387.886 674.175 421.675 704.616 441.112C736.463 461.445 804.838 481.778 870.404 478.788C897.567 477.592 924.262 472.21 947.678 461.445C966.411 453.072 1026.83 448.288 1042.28 437.822C1059.61 425.862 1066.16 403.734 1060.08 390.577C1019.33 301.768 1031.51 290.406 1031.98 278.146C1035.26 207.876 956.108 192.925 955.171 173.788C953.298 142.391 927.54 157.94 910.68 134.915C891.947 108.303 849.798 88.8664 803.433 84.3811Z" stroke="#979697" stroke-opacity="0.8" stroke-width="0.592" stroke-miterlimit="10"/>
<path d="M807.65 72.7194C752.387 67.3371 693.846 80.793 657.317 106.808C615.168 137.308 591.283 171.695 539.767 199.205C501.832 219.239 457.81 233.293 420.812 254.224C329.02 306.852 507.921 296.685 568.803 335.857C589.878 349.313 602.991 371.44 615.168 395.96C633.901 432.739 650.76 474.303 685.885 498.225C722.883 523.342 805.308 549.058 884.455 546.068C917.238 544.872 949.553 538.592 977.652 525.734C999.664 515.867 1074.13 510.783 1092.39 498.523C1113.47 484.47 1120.96 457.259 1113.47 441.411C1060.55 332.269 1077.41 319.411 1078.34 305.656C1083.96 220.136 987.019 203.092 987.019 181.264C987.019 142.69 954.236 162.724 934.566 134.616C912.555 102.322 862.444 78.1018 807.65 72.7194Z" stroke="#979697" stroke-opacity="0.8" stroke-width="0.592" stroke-miterlimit="10"/>
<path d="M811.394 61.0576C747.233 54.7782 678.858 70.6263 636.708 101.724C588.002 137.906 560.839 178.273 500.893 209.969C456.402 233.293 403.481 248.842 360.395 273.063C250.807 333.764 464.832 319.71 536.018 364.563C560.371 379.813 575.357 405.827 588.939 434.533C609.545 477.891 627.342 526.93 667.618 555.337C709.767 585.538 805.774 616.038 898.971 613.048C937.374 611.852 974.84 604.675 1008.09 589.724C1033.38 578.362 1121.89 572.979 1143.44 558.925C1168.26 542.479 1176.69 510.484 1167.32 491.945C1102.23 362.469 1123.77 348.117 1124.7 333.166C1133.13 232.695 1017.46 213.558 1018.86 188.44C1020.74 142.989 981.397 167.509 958.917 133.719C933.627 96.0429 875.555 67.6361 811.394 61.0576Z" stroke="#979697" stroke-opacity="0.8" stroke-width="0.592" stroke-miterlimit="10"/>
<path d="M815.146 49.6949C742.087 42.2194 663.877 60.7586 616.576 96.6409C561.313 138.205 531.34 184.852 462.028 220.435C410.512 246.749 349.629 264.092 299.518 291.303C171.665 360.376 420.815 342.435 502.772 392.969C530.404 410.313 547.263 439.916 562.25 473.107C585.198 522.744 603.931 579.558 648.422 612.45C695.255 647.435 805.78 683.318 912.558 680.028C956.581 678.832 999.667 670.759 1037.6 653.416C1066.17 640.558 1168.73 634.876 1193.09 619.028C1221.65 600.19 1231.02 563.411 1220.25 542.18C1142.98 392.371 1168.73 376.523 1170.61 360.077C1181.85 244.357 1047.9 223.425 1049.78 195.317C1053.99 142.69 1007.16 171.695 982.339 132.822C954.24 89.7635 888.205 56.8713 815.146 49.6949Z" stroke="#979697" stroke-opacity="0.8" stroke-width="0.592" stroke-miterlimit="10"/>
<path d="M818.891 38.0331C736.933 29.6606 648.888 50.891 595.967 91.2586C534.616 138.504 501.365 190.832 423.154 230.901C365.082 260.504 295.769 279.342 238.634 309.543C92.9838 386.989 377.258 364.862 469.519 421.675C500.897 440.813 519.161 474.303 535.553 511.68C560.374 567.597 580.044 632.185 629.687 669.862C681.671 709.631 806.246 750.896 926.606 747.607C975.78 746.112 1024.49 737.44 1067.1 718.004C1098.95 703.651 1215.56 697.671 1242.73 680.028C1275.04 659.097 1285.81 617.234 1273.17 593.313C1183.25 423.171 1214.16 406.126 1216.03 388.185C1230.08 257.215 1077.41 234.788 1080.69 203.092C1086.77 143.288 1032.92 176.778 1005.28 132.822C974.843 83.4841 901.316 46.4057 818.891 38.0331Z" stroke="#979697" stroke-opacity="0.8" stroke-width="0.592" stroke-miterlimit="10"/>
<path d="M822.636 26.3713C731.312 17.1017 633.9 40.7243 575.359 86.1752C507.452 139.102 470.922 197.411 383.813 241.666C319.184 274.558 241.442 294.891 177.75 328.381C13.8353 413.602 333.702 387.587 436.734 450.381C471.391 471.612 491.529 508.69 509.325 550.553C536.02 613.048 557.094 685.112 610.952 727.273C668.088 771.827 806.244 818.175 940.186 814.886C994.98 813.391 1049.31 803.823 1096.61 782.293C1131.73 766.445 1262.39 760.166 1292.84 740.729C1328.9 717.406 1340.61 670.759 1326.09 644.146C1223.99 453.67 1259.58 435.131 1261.93 415.695C1279.25 269.773 1107.85 245.254 1112.06 210.567C1120.49 143.587 1059.61 181.862 1029.17 132.224C995.448 77.2047 913.959 35.6409 822.636 26.3713Z" stroke="#979697" stroke-opacity="0.8" stroke-width="0.592" stroke-miterlimit="10"/>
<path d="M826.385 14.7096C726.163 4.54293 618.916 30.5576 554.755 80.793C480.291 139.102 440.952 203.69 344.945 252.131C273.291 288.014 187.119 310.141 116.87 346.621C-65.3095 439.916 290.151 410.014 403.486 478.788C441.42 501.813 463.432 542.778 482.633 588.827C511.201 657.602 533.212 737.44 592.221 784.087C654.04 833.426 806.715 885.156 954.238 881.568C1014.65 880.073 1074.13 869.607 1126.58 845.984C1164.99 828.641 1309.7 822.063 1342.95 800.832C1382.76 775.117 1395.4 723.685 1379.48 694.381C1264.74 483.572 1305.48 463.538 1307.82 442.906C1327.96 281.734 1137.82 255.42 1143.44 217.445C1153.75 143.587 1085.84 186.048 1053.05 131.327C1016.06 70.9253 926.607 24.8763 826.385 14.7096Z" stroke="#979697" stroke-opacity="0.8" stroke-width="0.592" stroke-miterlimit="10"/>
<path d="M573.486 841.2C668.088 917.45 959.856 999.381 1156.55 909.975C1198.23 891.136 1357 884.259 1393.06 861.234C1436.61 833.426 1450.19 776.911 1432.4 744.916C1305.95 513.774 1350.44 492.244 1353.72 470.117C1377.13 293.994 1168.26 265.587 1174.35 224.621C1186.99 143.587 1112.06 190.832 1076 130.729C1036.66 64.6459 939.249 14.4106 830.129 3.34683C721.009 -7.7169 603.927 20.989 534.615 75.7096C453.594 139.7 411.445 210.268 306.071 262.597C227.861 301.769 133.259 325.69 55.985 364.862C-143.991 466.528 246.594 432.44 370.232 506.896C474.201 569.391 467.176 755.68 573.486 841.2Z" stroke="#979697" stroke-opacity="0.8" stroke-width="0.592" stroke-miterlimit="10"/>
</svg>
