<svg width="127" height="127" viewBox="0 0 127 127" fill="none" xmlns="http://www.w3.org/2000/svg">
<path d="M21.1668 116.417H84.6668V105.833H21.1668V42.3333H10.5835V105.833C10.5835 111.67 15.3301 116.417 21.1668 116.417Z" fill="black"/>
<path d="M105.833 10.5833H42.3333C36.4966 10.5833 31.75 15.3299 31.75 21.1666V84.6666C31.75 90.5033 36.4966 95.2499 42.3333 95.2499H105.833C111.67 95.2499 116.417 90.5033 116.417 84.6666V21.1666C116.417 15.3299 111.67 10.5833 105.833 10.5833ZM95.25 58.2083H79.375V74.0833H68.7917V58.2083H52.9167V47.6249H68.7917V31.7499H79.375V47.6249H95.25V58.2083Z" fill="black"/>
</svg>
