<svg width="55" height="55" viewBox="0 0 55 55" fill="none" xmlns="http://www.w3.org/2000/svg">
<path d="M49.8438 8.59375H5.15625C4.20557 8.59375 3.4375 9.36182 3.4375 10.3125V18.9062H51.5625V10.3125C51.5625 9.36182 50.7944 8.59375 49.8438 8.59375ZM3.4375 44.6875C3.4375 45.6382 4.20557 46.4062 5.15625 46.4062H49.8438C50.7944 46.4062 51.5625 45.6382 51.5625 44.6875V23.6328H3.4375V44.6875ZM34.5361 34.8047C34.5361 34.5684 34.7295 34.375 34.9658 34.375H43.8281C44.0645 34.375 44.2578 34.5684 44.2578 34.8047V38.6719C44.2578 38.9082 44.0645 39.1016 43.8281 39.1016H34.9658C34.7295 39.1016 34.5361 38.9082 34.5361 38.6719V34.8047Z" fill="#F2F4F7"/>
</svg>
