<svg width="40" height="40" viewBox="0 0 40 40" fill="none" xmlns="http://www.w3.org/2000/svg">
<path d="M19.7539 25.8203C19.7831 25.8577 19.8205 25.8879 19.8631 25.9086C19.9058 25.9294 19.9526 25.9402 20 25.9402C20.0474 25.9402 20.0942 25.9294 20.1369 25.9086C20.1795 25.8879 20.2169 25.8577 20.2461 25.8203L24.6211 20.2852C24.7812 20.082 24.6367 19.7812 24.375 19.7812H21.4805V6.5625C21.4805 6.39062 21.3398 6.25 21.168 6.25H18.8242C18.6523 6.25 18.5117 6.39062 18.5117 6.5625V19.7773H15.625C15.3633 19.7773 15.2188 20.0781 15.3789 20.2812L19.7539 25.8203ZM34.2969 24.4531H31.9531C31.7812 24.4531 31.6406 24.5938 31.6406 24.7656V30.7812H8.35938V24.7656C8.35938 24.5938 8.21875 24.4531 8.04688 24.4531H5.70312C5.53125 24.4531 5.39062 24.5938 5.39062 24.7656V32.5C5.39062 33.1914 5.94922 33.75 6.64062 33.75H33.3594C34.0508 33.75 34.6094 33.1914 34.6094 32.5V24.7656C34.6094 24.5938 34.4688 24.4531 34.2969 24.4531Z" fill="white"/>
</svg>
