<svg width="49" height="49" viewBox="0 0 49 49" fill="none" xmlns="http://www.w3.org/2000/svg">
<path d="M45.2915 24.165L25.5815 4.46932C25.4395 4.32713 25.271 4.21431 25.0854 4.13734C24.8998 4.06037 24.7009 4.02075 24.5 4.02075C24.2991 4.02075 24.1002 4.06037 23.9146 4.13734C23.7291 4.21431 23.5605 4.32713 23.4186 4.46932L3.70851 24.165C3.13429 24.7392 2.8089 25.5192 2.8089 26.3327C2.8089 28.0219 4.18224 29.3952 5.8714 29.3952H7.94816V43.4492C7.94816 44.2962 8.63243 44.9805 9.47941 44.9805H21.4375V34.2617H26.7969V44.9805H39.5206C40.3676 44.9805 41.0519 44.2962 41.0519 43.4492V29.3952H43.1286C43.9421 29.3952 44.7221 29.0746 45.2963 28.4956C46.4878 27.2993 46.4878 25.3613 45.2915 24.165V24.165Z" fill="white"/>
</svg>
