<svg width="51" height="51" viewBox="0 0 51 51" fill="none" xmlns="http://www.w3.org/2000/svg">
<g clip-path="url(#clip0_705_6)">
<path d="M46.5375 39.8508L46.0559 39.4258C44.6894 38.2084 43.4933 36.8122 42.5 35.275C41.4152 33.1536 40.765 30.8369 40.5875 28.4608V21.4625C40.5969 17.7305 39.2431 14.1234 36.7806 11.3191C34.318 8.51484 30.9162 6.70631 27.2142 6.23334V4.40584C27.2142 3.90425 27.0149 3.4232 26.6603 3.06852C26.3056 2.71384 25.8245 2.51459 25.3229 2.51459C24.8214 2.51459 24.3403 2.71384 23.9856 3.06852C23.631 3.4232 23.4317 3.90425 23.4317 4.40584V6.26167C19.7629 6.76873 16.4022 8.5882 13.9719 11.3831C11.5417 14.1779 10.2067 17.7588 10.2142 21.4625V28.4608C10.0368 30.8369 9.38655 33.1536 8.3017 35.275C7.32544 36.8083 6.14864 38.2043 4.80253 39.4258L4.32086 39.8508V43.8458H46.5375V39.8508Z" fill="#F8F8F8"/>
<path d="M21.7033 45.3333C21.8275 46.2313 22.2725 47.054 22.956 47.6495C23.6396 48.245 24.5155 48.5731 25.4221 48.5731C26.3286 48.5731 27.2045 48.245 27.8881 47.6495C28.5716 47.054 29.0166 46.2313 29.1408 45.3333H21.7033Z" fill="#F8F8F8"/>
</g>
<defs>
<clipPath id="clip0_705_6">
<rect width="51" height="51" fill="white"/>
</clipPath>
</defs>
</svg>
