<svg width="79" height="26" viewBox="0 0 79 26" fill="none" xmlns="http://www.w3.org/2000/svg">
<g clip-path="url(#clip0_790_50)">
<path d="M40.8569 8.27865C40.8118 11.8861 44.024 13.899 46.4437 15.096C48.9297 16.3239 49.7648 17.1114 49.7549 18.2097C49.7364 19.8903 47.7719 20.6321 45.9336 20.6609C42.7263 20.7113 40.8615 19.7819 39.379 19.079L38.2237 24.5669C39.7111 25.2626 42.4653 25.8694 45.3213 25.896C52.0255 25.896 56.4116 22.5367 56.4353 17.3282C56.4615 10.7179 47.4281 10.3521 47.4898 7.39746C47.5111 6.50156 48.3532 5.54552 50.1986 5.30243C51.1121 5.17964 53.6336 5.08566 56.4924 6.422L57.6145 1.11236C56.077 0.544117 54.1011 -3.8147e-06 51.641 -3.8147e-06C45.3309 -3.8147e-06 40.8927 3.40506 40.8569 8.27865ZM68.3961 0.457346C67.1719 0.457346 66.1403 1.18221 65.6799 2.29457L56.1033 25.506H62.8025L64.1357 21.7661H72.322L73.0954 25.506H79L73.8474 0.457346H68.3961ZM69.3333 7.22392L71.2666 16.63H65.9718L69.3333 7.22392ZM32.7344 0.457659L27.4537 25.5057H33.8376L39.1158 0.457031H32.7344M23.2905 0.457031L16.6459 17.5065L13.958 3.01004C13.6426 1.39178 12.3971 0.457346 11.014 0.457346H0.152137L0 1.18472C2.2299 1.6759 4.76345 2.46812 6.2984 3.31578C7.23776 3.83359 7.50562 4.28624 7.81421 5.5167L12.9051 25.506H19.6513L29.9941 0.457346H23.2905" fill="url(#paint0_linear_790_50)"/>
</g>
<defs>
<linearGradient id="paint0_linear_790_50" x1="36.3195" y1="26.4155" x2="37.0803" y2="-0.179459" gradientUnits="userSpaceOnUse">
<stop stop-color="#222357"/>
<stop offset="1" stop-color="#254AA5"/>
</linearGradient>
<clipPath id="clip0_790_50">
<rect width="79" height="26" fill="white"/>
</clipPath>
</defs>
</svg>
