<svg width="149" height="149" viewBox="0 0 149 149" fill="none" xmlns="http://www.w3.org/2000/svg">
<g clip-path="url(#clip0_730_15)">
<mask id="mask0_730_15" style="mask-type:alpha" maskUnits="userSpaceOnUse" x="0" y="0" width="149" height="149">
<path d="M74.5 149C115.645 149 149 115.645 149 74.5C149 33.3548 115.645 0 74.5 0C33.3548 0 0 33.3548 0 74.5C0 115.645 33.3548 149 74.5 149Z" fill="white"/>
</mask>
<g mask="url(#mask0_730_15)">
<path d="M0 0H149V149H0V0Z" fill="#0052B4"/>
<path d="M74.4999 29.1598L76.9153 36.5807H84.6855L78.3704 41.1496L80.7858 48.5996L74.4708 44.0016L68.1558 48.5996L70.5712 41.1496L64.2562 36.5807H72.0554L74.4999 29.1598ZM42.43 42.4301L49.4144 45.9805L54.9146 40.4512L53.6923 48.1631L60.6476 51.7135L52.9356 52.9358L51.7134 60.6477L48.163 53.6633L40.4511 54.9147L45.9804 49.3854L42.43 42.4301ZM29.1597 74.5L36.5806 72.0846V64.3145L41.1495 70.6295L48.5995 68.2141L44.0015 74.5291L48.5995 80.8442L41.1495 78.4287L36.5806 84.7438V76.9446L29.1597 74.5ZM42.43 106.57L45.9804 99.5856L40.4511 94.0854L48.163 95.3076L51.7134 88.3524L52.9356 96.0643L60.6476 97.2865L53.6632 100.837L54.9146 108.549L49.3853 103.02L42.43 106.57ZM74.4999 119.84L72.0845 112.419H64.3144L70.6294 107.85L68.214 100.4L74.529 104.998L80.844 100.4L78.4286 107.85L84.7437 112.419H76.9444L74.4999 119.84ZM106.57 106.57L99.5855 103.02L94.0853 108.549L95.3075 100.837L88.3522 97.2865L96.0642 96.0643L97.2864 88.3524L100.837 95.3367L108.549 94.0854L103.019 99.6147L106.57 106.57ZM119.84 74.5L112.419 76.9155V84.6856L107.85 78.3705L100.4 80.786L104.998 74.4709L100.4 68.1559L107.85 70.5713L112.419 64.2563V72.0555L119.84 74.5ZM106.57 42.4301L103.019 49.4145L108.549 54.9147L100.837 53.6924L97.2864 60.6477L96.0642 52.9358L88.3522 51.7135L95.3366 48.1631L94.0853 40.4512L99.6145 45.9805L106.57 42.4301Z" fill="#FFDA44"/>
</g>
</g>
<defs>
<clipPath id="clip0_730_15">
<rect width="149" height="149" fill="white"/>
</clipPath>
</defs>
</svg>
