<svg width="64" height="64" viewBox="0 0 64 64" fill="none" xmlns="http://www.w3.org/2000/svg">
<path d="M22 60.3V46.5L11.7 54.1C14.6 56.8 18.1 58.9 22 60.3M42 60.3C45.9 58.9 49.3999 56.8 52.2999 54.1L42 46.4V60.3M3.69995 42C3.99995 43 4.39995 43.9 4.89995 44.9L8.79995 42H3.69995ZM55.2 42L59.0999 44.9C59.4999 44 59.8999 43 60.2999 42H55.2Z" fill="#2A5F9E"/>
<path d="M23.5001 38H2.6001C2.9001 39.4 3.3001 40.7 3.7001 42H8.8001L4.9001 44.9C5.7001 46.6 6.6001 48.1 7.7001 49.6L18.0001 42H22.0001V44L10.3001 52.6L11.7001 54L22.0001 46.5V60.3C23.3001 60.8 24.6001 61.1 26.0001 61.4V38H23.5001ZM61.4001 38H38.0001V61.4C39.4001 61.1 40.7001 60.7 42.0001 60.3V46.5L52.3001 54C53.7001 52.7 54.9001 51.3 56.1001 49.8L45.4001 42H52.2001L58.3001 46.5C58.6001 46 58.9001 45.4 59.1001 44.9L55.2001 42H60.3001C60.7001 40.7 61.1001 39.4 61.4001 38" fill="white"/>
<path d="M7.69995 49.6C8.49995 50.7 9.29995 51.7 10.2 52.7L22 44.1V42.1H18L7.69995 49.6ZM45.5 42L56.2 49.8C56.6 49.3 56.8999 48.8 57.2999 48.3C57.3999 48.2 57.4 48.1 57.5 48.1C57.8 47.6 58.2 47 58.5 46.5L52.2 42H45.5Z" fill="#ED4C5C"/>
<path d="M42 3.70001V17.5L52.2999 9.90001C49.3999 7.20001 45.9 5.10001 42 3.70001ZM22 3.70001C18.1 5.10001 14.6 7.20001 11.7 9.90001L22 17.6V3.70001ZM60.2999 22C59.9999 21 59.5999 20.1 59.0999 19.1L55.2 22H60.2999M8.79995 22L4.89995 19.1C4.49995 20.1 4.09995 21 3.69995 22H8.79995Z" fill="#2A5F9E"/>
<path d="M40.5001 26H61.3001C61.0001 24.6 60.6001 23.3 60.2001 22H55.1001L59.0001 19.1C58.2001 17.4 57.3001 15.9 56.2001 14.4L46.0001 22H42.0001V20L53.7001 11.4L52.3001 9.99998L42.0001 17.5V3.69998C40.7001 3.19998 39.4001 2.89998 38.0001 2.59998V26H40.5001ZM2.6001 26H26.0001V2.59998C24.6001 2.89998 23.3001 3.29998 22.0001 3.69998V17.5L11.7001 9.99998C10.3001 11.3 9.1001 12.7 7.9001 14.2L18.6001 22H11.8001L5.7001 17.5C5.4001 18 5.1001 18.6 4.9001 19.1L8.8001 22H3.7001C3.3001 23.3 2.9001 24.6 2.6001 26Z" fill="white"/>
<path d="M56.3001 14.4C55.5001 13.3 54.7001 12.3 53.8001 11.3L42.0001 19.9V21.9H46.0001L56.3001 14.4M18.5001 22L7.9001 14.2C7.5001 14.7 7.2001 15.2 6.8001 15.7C6.7001 15.8 6.7001 15.9 6.6001 15.9C6.3001 16.4 5.9001 17 5.6001 17.5L11.7001 22H18.5001Z" fill="#ED4C5C"/>
<path d="M61.4 26H38V2.6C36.1 2.2 34.1 2 32 2C29.9 2 27.9 2.2 26 2.6V26H2.6C2.2 27.9 2 29.9 2 32C2 34.1 2.2 36.1 2.6 38H26V61.4C27.9 61.8 29.9 62 32 62C34.1 62 36.1 61.8 38 61.4V38H61.4C61.8 36.1 62 34.1 62 32C62 29.9 61.8 27.9 61.4 26Z" fill="#ED4C5C"/>
</svg>
